Coordinates
version=1
nRows=8
nColumns=42
inDegrees=yes

Units are S.I. units (second, meters, Newtons, ...)
If the header above contains a line with 'inDegrees', this indicates whether rotational values are in degrees (yes) or radians (no).

endheader
time	pelvis_tilt	pelvis_list	pelvis_rotation	pelvis_tx	pelvis_ty	pelvis_tz	hip_flexion_r	hip_adduction_r	hip_rotation_r	knee_angle_r	knee_adduction_r	knee_angle_r_beta	ankle_angle_r	subtalar_angle_r	mtp_angle_r	hip_flexion_l	hip_adduction_l	hip_rotation_l	knee_angle_l	knee_adduction_l	knee_angle_l_beta	ankle_angle_l	subtalar_angle_l	mtp_angle_l	lumbar_extension	lumbar_bending	lumbar_rotation	arm_flex_r	arm_add_r	arm_rot_r	elbow_flex_r	pro_sup_r	wrist_flex_r	wrist_dev_r	arm_flex_l	arm_add_l	arm_rot_l	elbow_flex_l	pro_sup_l	wrist_flex_l	wrist_dev_l
      0.33000000	     23.59188211	      3.13217383	      3.39209540	     -0.52837652	      0.93555596	     -0.18877352	      2.67876543	      1.29800049	    -25.34555741	     34.06504094	    -16.74497118	      0.59454712	     13.45600251	     23.90026327	     -8.52438061	    -28.43750553	      9.18530787	      5.34824135	     22.13539266	     -2.03877529	      0.38633548	     20.57998055	    -15.65540581	     -8.52438061	    -38.22166261	     -3.40298852	      2.90791684	      0.12405006	    -10.12554470	    -38.82843014	     22.76136757	     90.00000001	      0.00000000	      0.00000000	     -1.22503217	    -18.08635156	      3.03405419	     69.22578287	     90.00000001	      0.00000000	      0.00000000
      0.34000000	     23.40814737	      3.10557559	      3.38033822	     -0.52259589	      0.93469426	     -0.18866852	      2.52577981	      1.33736571	    -25.40341700	     34.09063899	    -16.73194395	      0.59499389	     13.43531523	     23.90571367	     -8.52382864	    -28.59441164	      9.18001244	      5.34395831	     22.20239291	     -2.04122769	      0.38750486	     20.59341551	    -15.65966290	     -8.52382864	    -37.92833689	     -3.43321629	      2.95025936	      0.20105376	    -10.14681355	    -38.82093388	     22.79068177	     90.00000001	      0.00000000	      0.00000000	     -1.20971429	    -18.08817542	      3.03006340	     69.22827663	     90.00000001	      0.00000000	      0.00000000
      0.35000000	     23.34847150	      2.86046239	      3.48450334	     -0.51667656	      0.93399633	     -0.18841992	      2.31402187	      1.57941734	    -26.68700885	     33.88843426	    -17.23061697	      0.59146476	     12.91931567	     24.62429167	     -8.50752312	    -28.77349929	      8.84226972	      5.00116760	     22.52774879	     -2.03882007	      0.39318339	     20.99741474	    -15.94820568	     -8.50752312	    -37.76030876	     -3.19807518	      3.04856662	      0.33638632	    -10.23311261	    -38.83229462	     22.83366093	     90.00000001	      0.00000000	      0.00000000	     -1.26690182	    -18.09097989	      2.99238147	     69.04570231	     90.00000001	      0.00000000	      0.00000000
      0.36000000	     23.17441517	      2.81358703	      3.45871185	     -0.51083710	      0.93331828	     -0.18823517	      2.20384019	      1.63429328	    -26.75169811	     33.95096023	    -17.25374013	      0.59255604	     12.89873574	     24.67101496	     -8.50679981	    -28.93936666	      8.83968266	      4.98015795	     22.59603021	     -2.03703219	      0.39437512	     21.00356477	    -15.95271384	     -8.50679981	    -37.48247231	     -3.20686689	      3.08116280	      0.43112090	    -10.25953920	    -38.82331991	     22.86621419	     90.00000001	      0.00000000	      0.00000000	     -1.24337899	    -18.10137276	      2.98762275	     69.04830339	     90.00000001	      0.00000000	      0.00000000
      0.37000000	     23.07884541	      2.68633611	      3.48392319	     -0.50472787	      0.93253913	     -0.18795229	      2.29711771	      1.55542558	    -29.21713530	     33.96445796	    -18.43257871	      0.59279162	     12.82812725	     28.69563991	     -8.44295858	    -29.08035020	      8.68345963	      4.35768085	     22.91004576	     -2.12429528	      0.39985573	     21.23215449	    -16.03226967	     -8.44295858	    -37.25068582	     -3.10455823	      3.10967086	      0.66439321	    -10.34901205	    -38.95164288	     22.74953785	     90.00000001	      0.00000000	      0.00000000	     -1.30024761	    -18.14962574	      2.97954803	     68.83867172	     90.00000001	      0.00000000	      0.00000000
      0.38000000	     22.93456204	      2.57241805	      3.46376638	     -0.49879184	      0.93200069	     -0.18755518	      2.27909041	      1.73705436	    -29.22678142	     34.27539154	    -18.58660117	      0.59821843	     12.83752400	     28.63581049	     -8.43503455	    -29.20565745	      8.56825732	      3.97788691	     23.10503160	     -2.11110452	      0.40325888	     21.24606174	    -16.24336849	     -8.43503455	    -37.00338179	     -3.06154911	      3.16286576	      0.84939463	    -10.39837209	    -38.94822360	     22.81702042	     90.00000001	      0.00000000	      0.00000000	     -1.33863362	    -18.20275365	      2.97645854	     68.81504170	     90.00000001	      0.00000000	      0.00000000
      0.39000000	     22.79402824	      2.48134011	      3.47539404	     -0.49282143	      0.93159094	     -0.18705932	      2.25896074	      1.97763775	    -29.01690662	     34.60911713	    -18.78094389	      0.60404305	     12.84019795	     28.60189884	     -8.43243082	    -29.35332462	      8.46222292	      3.75821601	     23.27522410	     -2.08496596	      0.40622929	     21.22436746	    -16.34016786	     -8.43243082	    -36.76695332	     -3.04673053	      3.18960607	      1.03508057	    -10.40256120	    -38.93081865	     22.87350573	     90.00000001	      0.00000000	      0.00000000	     -1.31928992	    -18.28492644	      2.95769817	     68.79257590	     90.00000001	      0.00000000	      0.00000000
      0.40000000	     22.68500593	      2.26989197	      3.37135518	     -0.48698739	      0.93145735	     -0.18643853	      2.02807211	      2.59502788	    -26.17178744	     35.33908101	    -17.71193843	      0.61678332	     13.04068911	     24.16716730	     -8.36197377	    -29.38351540	      8.23817587	      2.68660151	     23.65209653	     -2.12835612	      0.41280696	     21.07091846	    -16.48055339	     -8.36197377	    -36.56604021	     -2.94394545	      3.35994908	      1.35435006	    -10.49658525	    -39.01910265	     22.87683299	     90.00000001	      0.00000000	      0.00000000	     -1.27276824	    -18.26053467	      3.01896616	     68.61900747	     90.00000001	      0.00000000	      0.00000000
